<svg xmlns="http://www.w3.org/2000/svg" width="25" height="25" viewBox="0 0 25 25"><g fill="#fff" transform="translate(4.5 -1031.862)"><circle cx="8" cy="1044.362" r="12.5" fill="#1d67b1"/><path style="line-height:normal;text-indent:0;text-align:start;text-decoration-line:none;text-decoration-style:solid;text-decoration-color:#000;text-transform:none;block-progression:tb;isolation:auto;mix-blend-mode:normal" d="m 7.0019531,1 0,3 1,0 0,-3 -1,0 z M 2.90625,2.6972656 2.1992188,3.4042969 4.3203125,5.5253906 5.0273438,4.8183594 2.90625,2.6972656 Z m 9.193359,0 L 9.9785156,4.8183594 10.685547,5.5253906 12.806641,3.4042969 12.099609,2.6972656 Z M 7.5019531,5 c -1.6509319,0 -3,1.3491 -3,3 0,1.651 1.3490681,3 3,3 1.6509321,0 2.9999999,-1.349 2.9999999,-3 0,-1.6509 -1.3490678,-3 -2.9999999,-3 z m 0,1 c 1.1104919,0 2,0.8895 2,2 0,1.1105 -0.8895081,2 -2,2 -1.1104918,0 -2,-0.8895 -2,-2 0,-1.1105 0.8895082,-2 2,-2 z m -6.99999998,1.5 0,1 2.99999998,0 0,-1 -2.99999998,0 z m 10.99999988,0 0,1 3,0 0,-1 -3,0 z M 4.3203125,10.476562 2.1992188,12.597656 2.90625,13.304688 5.0273438,11.183594 4.3203125,10.476562 Z m 6.3652345,0 -0.7070314,0.707032 2.1210934,2.121094 0.707032,-0.707032 -2.121094,-2.121094 z M 7.0019531,12 l 0,3 1,0 0,-3 -1,0 z" color="#000" font-family="sans-serif" font-weight="400" overflow="visible" transform="translate(.498 1036.862)"/></g></svg>