<svg xmlns="http://www.w3.org/2000/svg" width="25" height="25" viewBox="0 0 25 25"><g fill="#fff" transform="translate(-175.8 -594.744)"><circle cx="188.3" cy="607.244" r="12.5" fill="#239fdb" fill-rule="evenodd"/><path style="line-height:normal;text-indent:0;text-align:start;text-decoration-line:none;text-decoration-style:solid;text-decoration-color:#000;text-transform:none;block-progression:tb;isolation:auto;mix-blend-mode:normal" d="m 5,3.0078125 2.5058594,3.3320313 2.4980466,-3.3320313 -0.9999998,0 -4.0039062,0 z m -2.9980469,3.9960937 0,1 1,0 0,-1 -1,0 z m 2,0 0,1 1,0 0,-1 -1,0 z m 2,0 0,1 1,0 0,-1 -1,0 z m 2,0 0,1 1,0 0,-1 -1,0 z m 2.0019529,0 0,1 1,0 0,-1 -1,0 z m 2,0 0,1 1,0 0,-1 -1,0 z M 7.5058594,8.6699219 5,12.001953 l 5.003906,0 L 9.4042969,11.201172 7.5058594,8.6699219 Z" color="#000" font-family="sans-serif" font-weight="400" overflow="visible" transform="translate(180.797 599.739)"/></g></svg>