<svg xmlns="http://www.w3.org/2000/svg" width="25" height="25" viewBox="0 0 25 25"><g fill="#fff" transform="translate(4.417 -1032.375)"><circle cx="657.054" cy="437.094" r="15.268" fill="#9257a2" fill-rule="evenodd" transform="translate(-529.856 687.02) scale(.81871)"/><path style="line-height:normal;text-indent:0;text-align:start;text-decoration-line:none;text-decoration-style:solid;text-decoration-color:#000;text-transform:none;block-progression:tb;isolation:auto;mix-blend-mode:normal" d="m 13.494141,2 c -0.454326,0 -0.859209,0.2086713 -1.136719,0.53125 a 0.50005,0.50005 0 0 0 -0.0293,0.00977 L 2.8261719,5.8613281 C 2.5815652,5.3615909 2.0696859,5.0117188 1.4804688,5.0117188 c -0.8223514,0 -1.50000005,0.6776999 -1.50000005,1.5 l 0,4.0000002 c 0,0.8224 0.67764865,1.5 1.50000005,1.5 0.6354159,0 1.1816658,-0.40739 1.3984374,-0.970703 l 1.1230469,0.291015 0,3.171875 a 0.50005,0.50005 0 0 0 0.5,0.5 l 3,0 a 0.50005,0.50005 0 0 0 0.5,-0.5 l 0,-2.136718 4.3671879,1.128906 a 0.50005,0.50005 0 0 0 0.01563,0.0039 c 0.276703,0.303972 0.670352,0.5 1.109375,0.5 0.826688,0 1.507812,-0.681112 1.507812,-1.507812 l 0,-8.9843755 C 15.001953,2.6811125 14.32077,2 13.494141,2 Z m 0,1 c 0.290026,0 0.507812,0.2177125 0.507812,0.5078125 l 0,8.9843755 C 14.001953,12.782087 13.784108,13 13.494141,13 c -0.2752,0 -0.479298,-0.198983 -0.5,-0.466797 l 0,-9.0664061 C 13.01466,3.1986261 13.218748,3 13.494141,3 Z m -1.507813,0.71875 0,8.646484 -9.0058592,-2.330078 0,-3.1679685 L 11.986328,3.71875 Z M 1.4804688,6.0117188 c 0.2632398,0 0.4580997,0.1854118 0.4882812,0.4375 a 0.50005,0.50005 0 0 0 0.011719,0.1972656 l 0,3.8652346 c 0,0.2857 -0.2143514,0.5 -0.5,0.5 -0.2856487,0 -0.50000004,-0.2143 -0.50000005,-0.5 l 0,-4.0000002 c 0,-0.2856 0.21435135,-0.5 0.50000005,-0.5 z m 3.5214843,5.5781252 2,0.517578 0,1.896484 -2,0 0,-2.414062 z" color="#000" font-family="sans-serif" font-weight="400" overflow="visible" transform="translate(.584 1036.373)"/></g></svg>