<svg xmlns="http://www.w3.org/2000/svg" width="25" height="25" viewBox="0 0 25 25"><g fill="#fff" transform="translate(4.674 -1032.052)"><circle cx="7.826" cy="1044.552" r="12.5" fill="#3a6c87"/><path style="line-height:normal;text-indent:0;text-align:start;text-decoration-line:none;text-decoration-style:solid;text-decoration-color:#000;text-transform:none;block-progression:tb;isolation:auto;mix-blend-mode:normal" d="M 7.9960938,0.84179688 5.4765625,3 6.828125,3 10.513672,3 7.9960938,0.84179688 Z m 0,3.14453122 c -1.3481982,0 -2.5786636,0.4226657 -3.4902344,1.1347657 -0.9115709,0.7121999 -1.509777,1.7371593 -1.5097656,2.8808593 -1.14e-5,1.1437 0.5981947,2.1667059 1.5097656,2.8789059 0.9115708,0.7121 2.1420361,1.134766 3.4902344,1.134766 1.348198,0 2.5767102,-0.422666 3.4882812,-1.134766 0.911571,-0.7122 1.51173,-1.7352059 1.511719,-2.8789059 1.1e-5,-1.1437 -0.600148,-2.1686593 -1.511719,-2.8808593 -0.911571,-0.7121 -2.1400832,-1.1347657 -3.4882812,-1.1347657 z m 0,1 c 1.1370967,0 2.1559362,0.361675 2.8730472,0.921875 0.71711,0.5603 1.126961,1.29595 1.126953,2.09375 8e-6,0.7978 -0.409843,1.5315969 -1.126953,2.0917969 -0.717111,0.5602 -1.7359504,0.921875 -2.8730472,0.921875 -1.1370969,0 -2.1578898,-0.361675 -2.875,-0.921875 -0.7171103,-0.5602 -1.1250079,-1.2939969 -1.125,-2.0917969 -7.9e-6,-0.7978 0.4078897,-1.53345 1.125,-2.09375 0.7171102,-0.5602 1.7379031,-0.921875 2.875,-0.921875 z M 2.1601562,5.4824219 0,8 l 2.1601562,2.519531 0,-1.3515622 0,-3.6855469 z m 11.6796878,0 0,5.0371091 L 14.720703,9.4921875 16,8 13.839844,5.4824219 Z M 5.4765625,13 6.5039062,13.880859 7.9960938,15.160156 10.513672,13 5.4765625,13 Z" color="#000" font-family="sans-serif" font-weight="400" overflow="visible" transform="translate(-.174 1036.55)"/></g></svg>