<svg xmlns="http://www.w3.org/2000/svg" width="25" height="25" viewBox="0 0 25 25"><g transform="translate(0 -1027.362)"><circle cx="37.045" cy="28.409" r="12.5" fill="#50b748" fill-rule="evenodd" transform="translate(-24.545 1011.453)"/><path fill="#fff" style="line-height:normal;text-indent:0;text-align:start;text-decoration-line:none;text-decoration-style:solid;text-decoration-color:#000;text-transform:none;block-progression:tb;isolation:auto;mix-blend-mode:normal" d="m 4.265625,1.7617188 c -2.3389044,2.3389999 -2.3389045,6.145475 0,8.4843752 L 4.9726562,9.5390625 c -1.9567638,-1.9568 -1.9567637,-5.1135125 0,-7.0703125 L 4.265625,1.7617188 Z m 8.484375,0 -0.707031,0.7070312 c 1.956764,1.9568 1.956764,5.1135125 0,7.0703125 L 12.75,10.246094 c 2.338904,-2.3389002 2.338904,-6.1453753 0,-8.4843752 z M 5.6796875,3.1757812 c -1.5578738,1.5579001 -1.5578738,4.09835 0,5.65625 L 6.3867188,8.125 c -1.1757332,-1.1757 -1.1757332,-3.0663875 0,-4.2421875 L 5.6796875,3.1757812 Z m 5.6699215,0 -0.707031,0.7070313 c 1.175733,1.1758 1.175733,3.0664875 0,4.2421875 l 0.707031,0.7070312 c 1.557874,-1.5579 1.557874,-4.0983499 0,-5.65625 z m -2.8417965,0.828125 c -1.0986472,0 -2.0000001,0.9014 -2,2 -1e-7,0.92535 0.6418902,1.7029563 1.5,1.9277344 l 0,5.0722654 1,0 0,-5.0722654 C 9.8659224,7.7068625 10.507813,6.9292562 10.507812,6.0039062 c 1e-6,-1.0986 -0.9013523,-2 -1.9999995,-2 z m 0,1 c 0.558207,0 1,0.4418001 1,1 0,0.5582 -0.441793,1 -1,1 -0.558207,0 -1,-0.4418 -1,-1 0,-0.5581999 0.441793,-1 1,-1 z" color="#000" font-family="sans-serif" font-weight="400" overflow="visible" transform="translate(3.992 1032.358)"/></g></svg>