<svg xmlns="http://www.w3.org/2000/svg" width="25" height="25" viewBox="0 0 25 25"><g fill="#fff" transform="translate(4.499 -1031.861)"><circle cx="657.054" cy="437.094" r="15.268" fill="#9257a2" fill-rule="evenodd" transform="translate(-529.938 686.506) scale(.81871)"/><path style="line-height:normal;text-indent:0;text-align:start;text-decoration-line:none;text-decoration-style:solid;text-decoration-color:#000;text-transform:none;block-progression:tb;isolation:auto;mix-blend-mode:normal" d="m 0.99023438,2.0078125 0,2.0039063 -0.99218751,0 0,2.484375 c 0,1.2069985 0.86501992,2.2162967 2.00585933,2.4472656 l 0,2.0546876 1,0 0,-2.0566408 C 4.138906,8.7058714 4.9980469,7.6989326 4.9980469,6.4960938 l 0,-2.484375 -0.5,0 -0.4980469,0 0,-2.0039063 -1,0 0,2.0039063 -1.0097656,0 0,-2.0039063 -1.00000002,0 z m 0.007813,3.0039063 3.00000002,0 0,1.484375 c 0,0.8396999 -0.6603514,1.5 -1.5,1.5 -0.8396486,0 -1.50000004,-0.6603001 -1.50000002,-1.5 l 0,-1.484375 z m 5.00585932,0.9941406 0,0.5 0,0.5 3.0039063,0 0,4.9999996 -8.0234375,0 0,-2.3320309 c -0.47606,-0.147 -0.86951,-0.4700312 -1,-0.9570312 l 0,3.7890621 0,0.5 0.5,0 13.0000005,0 0.5,0 0,-0.5 0,-1.492187 2.007813,0 0,-3.0000001 -2.007813,0 0,-1.5078125 0,-0.5 -0.5,0 -7.4804693,0 z m 4.0039063,1 2.976563,0 0,4.9999996 -2.976563,0 0,-4.9999996 z m 3.984376,2.0078125 1,0 0,1.0000001 -1,0 0,-1.0000001 z" color="#000" font-family="sans-serif" font-weight="400" overflow="visible" transform="translate(.517 1035.844)"/></g></svg>